<?xml version="1.0" standalone="no"?>
<!DOCTYPE svg PUBLIC "-//W3C//DTD SVG 20010904//EN"
 "http://www.w3.org/TR/2001/REC-SVG-20010904/DTD/svg10.dtd">
<svg version="1.0" xmlns="http://www.w3.org/2000/svg"
 width="813.000000pt" height="242.000000pt" viewBox="0 0 813.000000 242.000000"
 preserveAspectRatio="xMidYMid meet">

<g transform="translate(0.000000,242.000000) scale(0.100000,-0.100000)"
fill="#000000" stroke="none">
<path d="M0 1210 l0 -1210 4065 0 4065 0 0 1210 0 1210 -4065 0 -4065 0 0
-1210z m4293 793 c-7 -2 -21 -2 -30 0 -10 3 -4 5 12 5 17 0 24 -2 18 -5z
m-192 -29 c-120 -101 15 -313 212 -332 52 -5 57 -7 32 -13 -57 -13 -178 -9
-237 7 -110 31 -180 120 -164 209 9 45 68 112 121 136 57 26 72 23 36 -7z
m356 -14 c76 -35 153 -105 193 -175 51 -89 61 -149 67 -387 l6 -218 58 0 c33
0 59 -4 59 -10 0 -6 -27 -10 -60 -10 l-60 0 0 -222 c0 -214 1 -223 22 -245 27
-29 71 -30 98 -3 24 24 26 13 4 -19 -20 -28 -88 -60 -129 -61 -47 0 -97 32
-122 80 -23 43 -23 45 -23 480 0 399 -2 443 -19 512 -11 42 -32 100 -46 128
-34 67 -109 148 -160 172 l-40 19 45 -6 c25 -3 73 -19 107 -35z m1165 -40 c90
-25 161 -114 173 -215 6 -50 6 -50 -9 -20 -52 106 -153 150 -336 148 -140 -3
-273 -22 -620 -89 -50 -10 368 127 475 155 118 32 248 40 317 21z m-2462 -825
c0 -419 2 -438 47 -464 13 -7 -20 -10 -116 -11 l-135 0 30 31 29 30 3 322 c2
292 1 325 -15 357 -10 19 -28 40 -40 46 -21 10 -19 12 30 23 28 7 72 23 97 36
25 13 51 24 58 25 9 0 12 -86 12 -395z m3770 85 c32 0 62 -4 65 -10 4 -6 -18
-10 -59 -10 l-66 0 0 -220 0 -221 25 -24 c28 -29 61 -32 95 -8 l25 17 -16 -24
c-31 -47 -66 -65 -129 -65 -54 0 -62 3 -95 35 -19 19 -40 50 -45 70 -5 19 -10
166 -10 326 l0 292 -29 31 c-18 20 -25 33 -18 36 81 23 128 40 157 55 l35 18
3 -149 3 -149 59 0z m-6195 221 c-48 -22 -93 -65 -111 -106 -12 -28 -13 -25
-14 48 l0 77 83 0 82 0 -40 -19z m295 -324 c0 -192 4 -357 10 -376 5 -19 19
-45 32 -58 l21 -23 -140 0 -141 0 29 29 29 29 0 365 c0 200 3 367 7 370 3 4
39 7 80 7 l73 0 0 -343z m270 261 l0 -83 -19 40 c-22 48 -63 88 -111 108 l-35
15 83 1 82 1 0 -82z m5147 -160 c51 -48 16 -128 -57 -128 -43 0 -61 18 -74 74
-6 24 -11 28 -36 24 -25 -4 -28 -2 -17 10 36 44 146 56 184 20z m1300 0 c49
-46 17 -128 -50 -128 -44 0 -67 19 -76 60 -6 31 -11 35 -38 35 -26 0 -29 2
-20 14 36 43 146 55 184 19z m-4311 -24 c69 -39 78 -70 84 -285 5 -190 8 -202
49 -236 12 -11 -10 -13 -117 -13 l-132 0 20 20 c36 36 40 66 40 282 l0 210
-30 28 -31 29 38 -6 c21 -3 57 -16 79 -29z m752 21 c18 -4 46 -18 62 -32 53
-44 32 -123 -33 -123 -47 0 -67 25 -67 83 0 34 -6 57 -17 70 -17 19 -17 19 2
14 11 -3 35 -8 53 -12z m1325 1 c43 -17 93 -76 106 -123 6 -21 11 -109 11
-196 0 -90 4 -167 10 -178 7 -11 21 -19 38 -19 l26 0 -20 -20 c-46 -47 -142
-31 -177 29 -14 25 -17 59 -17 231 0 220 -5 246 -58 274 l-27 15 38 1 c21 0
52 -6 70 -14z m-3843 -26 c-42 -45 -64 -121 -63 -213 0 -66 5 -87 31 -140 45
-90 82 -112 188 -112 93 0 95 -8 16 -47 -37 -18 -64 -23 -127 -23 -70 0 -87 4
-134 30 -159 88 -199 303 -81 438 44 49 128 97 171 97 l27 0 -28 -30z m158 11
c73 -37 128 -122 139 -212 l6 -49 -80 0 -81 0 -4 103 c-3 83 -7 109 -25 140
-26 44 -15 48 45 18z m642 -11 c-42 -45 -64 -121 -63 -213 0 -66 5 -87 31
-140 45 -90 82 -112 188 -112 93 0 95 -8 16 -47 -37 -18 -64 -23 -127 -23 -70
0 -87 4 -134 30 -159 88 -199 303 -81 438 44 49 128 97 171 97 l27 0 -28 -30z
m239 -45 l-1 -70 -14 42 c-9 23 -31 56 -49 72 l-34 30 49 -2 50 -2 -1 -70z
m2593 52 c-32 -34 -29 -79 8 -110 l30 -26 -26 -20 c-31 -24 -99 -28 -126 -7
-40 30 -44 90 -9 130 20 24 89 55 120 56 l24 0 -21 -23z m916 -494 c7 -12 20
-27 30 -32 12 -7 -22 -10 -117 -11 l-135 0 30 31 29 30 3 162 c2 140 0 167
-15 197 -10 19 -28 40 -40 46 -21 10 -19 12 30 23 28 7 77 25 107 41 l55 28 5
-247 c3 -171 9 -253 18 -268z m1282 278 c0 -126 4 -241 10 -255 5 -14 18 -34
30 -46 l20 -20 -132 0 -132 0 23 21 c36 34 41 62 41 222 0 134 -2 156 -20 185
-11 18 -30 36 -41 40 -17 7 -11 11 32 21 30 6 74 22 99 36 25 13 51 24 58 24
9 1 12 -51 12 -228z m-3583 164 c-1 -51 30 -77 152 -131 127 -55 192 -99 214
-147 31 -64 18 -114 -43 -172 l-32 -30 13 28 c19 41 -9 70 -138 147 -130 77
-153 94 -187 145 -34 49 -36 129 -5 169 11 14 22 26 24 26 2 0 3 -16 2 -35z
m1448 -189 c-75 -99 -69 -240 14 -282 21 -11 21 -12 -10 -18 -82 -16 -155 0
-193 43 -28 31 -33 116 -8 161 22 42 97 95 161 114 64 20 65 20 36 -18z
m-1434 -237 c12 -17 36 -40 53 -50 l31 -19 -35 7 c-19 4 -50 8 -67 8 l-33 0 1
80 0 80 14 -38 c8 -21 24 -52 36 -68z"/>
</g>
</svg>
